<?xml version="1.0" standalone="no"?>
<!DOCTYPE svg PUBLIC "-//W3C//DTD SVG 20010904//EN"
 "http://www.w3.org/TR/2001/REC-SVG-20010904/DTD/svg10.dtd">
<svg version="1.0" xmlns="http://www.w3.org/2000/svg"
 width="128.000000pt" height="128.000000pt" viewBox="0 0 128.000000 128.000000"
 preserveAspectRatio="xMidYMid meet">

<g transform="translate(0.000000,128.000000) scale(0.100000,-0.100000)"
fill="#000000" stroke="none">
<path d="M634 1190 c-36 -15 -54 -50 -54 -107 l0 -53 -114 0 c-107 0 -116 -2
-144 -25 -24 -20 -41 -25 -103 -27 -67 -3 -74 -5 -77 -25 -2 -16 -11 -23 -35
-25 l-32 -3 0 -370 0 -370 220 -5 c204 -5 224 -7 272 -29 l53 -23 52 23 c49
22 69 24 273 29 l220 5 0 370 0 370 -32 3 c-24 2 -33 9 -35 25 -2 18 -11 23
-53 27 l-50 5 -3 81 c-2 72 -6 84 -28 105 -24 23 -33 24 -167 26 -78 1 -152
-2 -163 -7z m299 -21 c12 -7 25 -17 29 -23 10 -14 10 -198 0 -212 -12 -19 -49
-34 -81 -34 -28 0 -31 -3 -31 -32 l0 -32 -33 32 c-25 24 -42 32 -70 32 -31 0
-37 4 -37 21 0 11 4 18 9 14 5 -3 22 6 37 19 l28 24 33 -26 c44 -33 57 -18 15
16 l-32 27 20 40 c11 21 20 45 20 52 0 7 9 13 19 13 11 0 23 5 26 10 4 6 -11
10 -38 10 -34 0 -47 4 -52 18 -6 16 -7 16 -16 0 -7 -13 -22 -18 -49 -18 -22 0
-40 -4 -40 -10 0 -6 28 -10 65 -10 36 0 65 -2 65 -5 0 -11 -29 -75 -34 -75 -3
0 -13 17 -22 38 -12 26 -18 32 -21 20 -2 -9 3 -31 13 -49 16 -33 16 -33 -11
-57 l-28 -24 -15 29 c-20 37 -41 52 -74 53 -27 0 -28 2 -28 54 0 47 4 57 26
75 24 19 40 21 156 21 78 0 138 -5 151 -11z m-263 -179 c17 -17 20 -33 20
-115 0 -123 -10 -135 -108 -135 -65 0 -70 -2 -103 -36 l-34 -35 -5 33 c-4 28
-9 33 -35 36 -83 7 -95 25 -95 138 0 72 10 111 34 126 6 4 77 8 159 8 134 0
149 -2 167 -20z m-378 -25 c3 -3 3 -16 1 -30 -4 -18 -12 -25 -37 -27 -41 -4
-40 -22 2 -26 30 -3 32 -6 32 -42 0 -36 -2 -39 -32 -42 -44 -4 -42 -22 2 -26
20 -2 43 -13 56 -28 13 -14 40 -26 63 -30 70 -11 45 -23 -54 -26 -124 -4 -125
-22 -1 -26 80 -2 95 -5 98 -20 3 -13 13 -8 49 26 41 37 52 42 93 42 l46 0 0
-250 0 -250 -40 20 c-35 18 -58 20 -225 20 l-185 0 0 360 0 360 63 0 c35 0 66
-2 69 -5z m788 -155 c0 -100 4 -160 10 -160 6 0 10 50 10 131 l0 130 28 -3 27
-3 0 -350 0 -350 -215 -5 c-194 -5 -220 -7 -263 -27 -42 -20 -48 -20 -45 -6 2
9 19 26 38 37 31 19 57 22 230 26 l195 5 3 128 c2 82 -1 127 -8 127 -6 0 -10
-44 -10 -120 l0 -120 -182 0 c-159 0 -189 -3 -225 -20 l-43 -19 0 254 c0 223
2 255 15 255 9 0 27 11 40 25 21 20 25 34 25 80 0 54 0 55 30 55 21 0 43 -12
72 -37 l41 -38 -33 -5 c-18 -3 -35 -11 -38 -17 -3 -10 25 -13 118 -13 93 0
121 3 118 13 -3 8 -30 13 -76 15 l-72 3 0 39 0 40 75 0 c48 0 75 4 75 11 0 6
-9 13 -20 16 -23 6 -23 4 -10 37 8 22 16 26 50 26 l40 0 0 -160z m-938 -237
l3 -338 195 -5 c166 -4 200 -8 233 -24 21 -12 37 -27 37 -37 0 -16 -4 -16 -47
4 -43 19 -70 22 -263 27 l-215 5 -3 340 c-1 187 0 346 3 352 2 7 16 13 30 13
l25 0 2 -337z"/>
<path d="M452 885 c-21 -51 -27 -77 -19 -82 6 -3 17 3 25 15 19 29 72 30 79 2
6 -23 33 -28 33 -6 0 28 -59 146 -73 146 -9 0 -27 -31 -45 -75z m63 -2 c5 -20
3 -23 -19 -23 -24 0 -24 2 -14 31 11 32 21 29 33 -8z"/>
<path d="M225 570 c-3 -5 0 -13 8 -15 24 -10 232 -1 230 10 -4 14 -229 19
-238 5z"/>
<path d="M225 460 c-3 -5 0 -13 8 -15 24 -10 232 -1 230 10 -4 14 -229 19
-238 5z"/>
<path d="M225 350 c-3 -5 0 -13 8 -15 24 -10 232 -1 230 10 -4 14 -229 19
-238 5z"/>
<path d="M787 684 c-19 -19 3 -24 114 -24 92 0 120 3 117 13 -5 13 -218 23
-231 11z"/>
<path d="M1080 570 c0 -27 5 -50 10 -50 6 0 10 23 10 50 0 28 -4 50 -10 50 -5
0 -10 -22 -10 -50z"/>
<path d="M787 574 c-19 -19 3 -24 114 -24 92 0 120 3 117 13 -5 13 -218 23
-231 11z"/>
<path d="M787 464 c-19 -19 3 -24 114 -24 92 0 120 3 117 13 -5 13 -218 23
-231 11z"/>
<path d="M787 354 c-19 -19 3 -24 114 -24 92 0 120 3 117 13 -5 13 -218 23
-231 11z"/>
</g>
</svg>
